<?xml version="1.0" standalone="no"?><!DOCTYPE svg PUBLIC "-//W3C//DTD SVG 1.1//EN" "http://www.w3.org/Graphics/SVG/1.1/DTD/svg11.dtd"><svg t="1634914826633" class="icon" viewBox="0 0 1024 1024" version="1.1" xmlns="http://www.w3.org/2000/svg" p-id="6488" xmlns:xlink="http://www.w3.org/1999/xlink" width="200" height="200"><defs><style type="text/css"></style></defs><path d="M983 455.4c-73.8-44.3-119-124.1-119-210.3V32c0-17.7-14.3-32-32-32H192c-17.7 0-32 14.3-32 32v213.2c0 86.1-45.2 165.9-119 210.3-12.7 7.5-23 18.2-30 30.7C3.9 498.7 0 513 0 527.8V960c0 35.3 28.7 64 64 64h896c35.3 0 64-28.7 64-64V527.8c0-29.7-15.5-57.1-41-72.4z m-839.8-2.1C194.3 397 224 322.7 224 245.2V80c0-8.8 7.2-16 16-16h544c8.8 0 16 7.2 16 16v165.2c0 77.6 29.7 151.9 80.8 208.1 9.3 10.3 1.9 26.7-11.9 26.7H744.1c-6.9 0-13 4.4-15.2 10.9L711.2 544l-14 42.1c-4.3 13.1-16.6 21.9-30.4 21.9H357.2c-13.8 0-26-8.8-30.4-21.9l-14-42.1-17.7-53.1c-2.2-6.5-8.3-10.9-15.2-10.9H155.2c-13.9 0-21.3-16.4-12-26.7z" p-id="6489" fill="#999999"></path><path d="M672 193H352c-17.7 0-32-14.3-32-32s14.3-32 32-32h320c17.7 0 32 14.3 32 32s-14.3 32-32 32zM672 320H352c-17.7 0-32-14.3-32-32s14.3-32 32-32h320c17.7 0 32 14.3 32 32s-14.3 32-32 32zM672 448H352c-17.7 0-32-14.3-32-32s14.3-32 32-32h320c17.7 0 32 14.3 32 32s-14.3 32-32 32z" p-id="6490" fill="#999999"></path></svg>