<svg width="100%" height="100%" id="svg" viewBox="0 0 1440 600" xmlns="http://www.w3.org/2000/svg" class="transition duration-300 ease-in-out delay-150"><defs><linearGradient id="gradient" x1="0%" y1="50%" x2="100%" y2="50%"><stop offset="5%" stop-color="#002bdc88"></stop><stop offset="95%" stop-color="#32ded488"></stop></linearGradient></defs><path d="M 0,600 C 0,600 0,200 0,200 C 85.13875598086128,221.02392344497608 170.27751196172255,242.04784688995215 258,258 C 345.72248803827745,273.95215311004785 436.02870813397124,284.8325358851675 546,259 C 655.9712918660288,233.1674641148325 785.6076555023923,170.62200956937798 889,153 C 992.3923444976077,135.37799043062202 1069.5406698564593,162.67942583732057 1157,178 C 1244.4593301435407,193.32057416267943 1342.2296650717703,196.66028708133973 1440,200 C 1440,200 1440,600 1440,600 Z" stroke="none" stroke-width="0" fill="url(#gradient)" class="transition-all duration-300 ease-in-out delay-150 path-0"></path><defs><linearGradient id="gradient" x1="0%" y1="50%" x2="100%" y2="50%"><stop offset="5%" stop-color="#002bdcff"></stop><stop offset="95%" stop-color="#32ded4ff"></stop></linearGradient></defs><path d="M 0,600 C 0,600 0,400 0,400 C 93.91387559808612,446.0574162679426 187.82775119617224,492.1148325358851 287,467 C 386.17224880382776,441.8851674641149 490.6028708133971,345.5980861244019 579,341 C 667.3971291866029,336.4019138755981 739.7607655502394,423.4928229665072 845,452 C 950.2392344497606,480.5071770334928 1088.3540669856459,450.4306220095694 1193,432 C 1297.6459330143541,413.5693779904306 1368.8229665071772,406.78468899521533 1440,400 C 1440,400 1440,600 1440,600 Z" stroke="none" stroke-width="0" fill="url(#gradient)" class="transition-all duration-300 ease-in-out delay-150 path-1"></path></svg>
