<?xml version="1.0" standalone="no"?><!DOCTYPE svg PUBLIC "-//W3C//DTD SVG 1.1//EN" "http://www.w3.org/Graphics/SVG/1.1/DTD/svg11.dtd"><svg t="1635043471869" class="icon" viewBox="0 0 1024 1024" version="1.1" xmlns="http://www.w3.org/2000/svg" p-id="2397" xmlns:xlink="http://www.w3.org/1999/xlink" width="200" height="200"><defs><style type="text/css"></style></defs><path d="M762.88 435.5072c3.84-250.88-172.7488-392.3456-229.4784-430.08a30.72 30.72 0 0 0-33.792-0.3072C441.6 42.0864 257.28 177.92 261.12 435.7632c-48.7424 32.1536-99.6864 89.3952-91.392 188.3136S271.7696 788.48 307.6608 784.9984s25.6-30.72 25.6-30.72l12.3392-51.2s52.9408 82.3808 69.7344 82.3808c15.36-1.28 87.9104 0 96.4096 0h0.768c8.8064 0 81.1008-1.28 96.4096 0 16.8448 0 69.8368-82.3808 69.8368-82.3808l12.288 51.2s-10.24 27.3408 25.6 30.72 129.792-62.0032 137.8304-160.9216-43.1616-156.16-91.5968-188.5696z m-250.88-4.2496c-6.7584 0-95.6416-3.4816-103.68-109.7216 3.0208-100.9152 96.9216-109.9264 103.68-110.4384 7.0144 0.512 100.7104 9.5232 103.68 110.4384-8.2432 106.24-96.9216 109.7216-103.68 109.7216z m-52.48 512a21.1968 21.1968 0 1 1-42.3936 0v-107.7248a21.6064 21.6064 0 0 1 21.3504-21.9136 21.4016 21.4016 0 0 1 21.0432 21.9136zM537.6 1001.9328a21.6064 21.6064 0 1 1-43.2128 0v-160.6656a21.7088 21.7088 0 0 1 21.5552-22.1184 22.0672 22.0672 0 0 1 21.6576 22.1184z m71.68-83.8656a21.6064 21.6064 0 0 1-21.2992 21.9136 21.248 21.248 0 0 1-21.0944-21.9136v-77.312a21.1968 21.1968 0 1 1 42.3936 0z" p-id="2398" fill="#999999"></path></svg>