<svg width="576" height="512" xmlns="http://www.w3.org/2000/svg" class="svg-inline--fa fa-android fa-w-18" role="img" data-icon="android" data-prefix="fab" focusable="false" aria-hidden="true">

 <g>
  <title>Layer 1</title>
  <path id="svg_1" d="m420.55,301.93a24,24 0 1 1 24,-24a24,24 0 0 1 -24,24m-265.1,0a24,24 0 1 1 24,-24a24,24 0 0 1 -24,24m273.7,-144.48l47.94,-83a10,10 0 1 0 -17.27,-10l0,0l-48.54,84.07a301.25,301.25 0 0 0 -246.56,0l-48.54,-84.07a10,10 0 1 0 -17.27,10l0,0l47.94,83c-82.32,44.77 -138.61,128.1 -146.85,226.55l576,0c-8.24,-98.45 -64.54,-181.78 -146.85,-226.55" fill="#45dc89"/>
 </g>
</svg>