<svg width="496" height="512" xmlns="http://www.w3.org/2000/svg" class="svg-inline--fa fa-ubuntu fa-w-16" role="img"
     data-icon="ubuntu" data-prefix="fab" focusable="false" aria-hidden="true">
    <g>
        <title>Layer 1</title>
        <path id="svg_1"
              d="m248,8c-137,0 -248,111 -248,248s111,248 248,248s248,-111 248,-248s-111,-248 -248,-248zm52.7,93c8.8,-15.2 28.3,-20.5 43.5,-11.7c15.3,8.8 20.5,28.3 11.7,43.6c-8.8,15.2 -28.3,20.5 -43.5,11.7c-15.3,-8.9 -20.5,-28.4 -11.7,-43.6zm-213.3,186.9c-17.6,0 -31.9,-14.3 -31.9,-31.9c0,-17.6 14.3,-31.9 31.9,-31.9c17.6,0 31.9,14.3 31.9,31.9c0,17.6 -14.3,31.9 -31.9,31.9zm28.1,3.1c22.3,-17.9 22.4,-51.9 0,-69.9c8.6,-32.8 29.1,-60.7 56.5,-79.1l23.7,39.6c-51.5,36.3 -51.5,112.5 0,148.8l-23.7,39.6c-27.4,-18.3 -47.8,-46.3 -56.5,-79zm228.7,131.7c-15.3,8.8 -34.7,3.6 -43.5,-11.7c-8.8,-15.3 -3.6,-34.8 11.7,-43.6c15.2,-8.8 34.7,-3.6 43.5,11.7c8.8,15.3 3.6,34.8 -11.7,43.6zm0.3,-69.5c-26.7,-10.3 -56.1,6.6 -60.5,35c-5.2,1.4 -48.9,14.3 -96.7,-9.4l22.5,-40.3c57,26.5 123.4,-11.7 128.9,-74.4l46.1,0.7c-2.3,34.5 -17.3,65.5 -40.3,88.4zm-5.9,-105.3c-5.4,-62 -71.3,-101.2 -128.9,-74.4l-22.5,-40.3c47.9,-23.7 91.5,-10.8 96.7,-9.4c4.4,28.3 33.8,45.3 60.5,35c23.1,22.9 38,53.9 40.2,88.5l-46,0.6z"
              fill="#de4815"/>
    </g>
</svg>
